<svg xmlns="http://www.w3.org/2000/svg" viewBox="0 0 420.97 42.43">
  <g>
    <g>
      <path d="M44.06,40.16H30.5V26.71a1.33,1.33,0,0,0-1.32-1.33H14.87a1.33,1.33,0,0,0-1.31,1.33V40.16H0V2.27H13.56V16.48a1.33,1.33,0,0,0,1.31,1.33H29.18a1.33,1.33,0,0,0,1.32-1.33V2.27H44.06Z" fill="#478cd0"/>
      <path d="M82.14,2.19a30.51,30.51,0,0,0-22.7,0,20.57,20.57,0,0,0,0,38.05,30.51,30.51,0,0,0,22.7,0,20.57,20.57,0,0,0,0-38.05M78.27,29.81a13.72,13.72,0,0,1-2.11,3.35,7.15,7.15,0,0,1-10.74,0,14,14,0,0,1-2.11-3.35,24.46,24.46,0,0,1,0-17.19,13.84,13.84,0,0,1,2.11-3.35,7.15,7.15,0,0,1,10.74,0,13.54,13.54,0,0,1,2.11,3.35,24.46,24.46,0,0,1,0,17.19" fill="#478cd0"/>
      <rect x="144.98" y="2.27" width="14.31" height="37.89" fill="#478cd0"/>
      <path d="M204,21.66a4.2,4.2,0,0,1-.58-.44,1.33,1.33,0,0,1-.4-.95,1.4,1.4,0,0,1,.41-1,10.62,10.62,0,0,0-7.94-17.58H164.56V40.16h32.38a10.58,10.58,0,0,0,10.55-10.61A10,10,0,0,0,204,21.66M181.5,8.9h6.41a4.74,4.74,0,0,1,0,9.47H181.5a4.74,4.74,0,0,1,0-9.47M189.41,33H181.5a4.74,4.74,0,0,1,0-9.47h7.91a4.74,4.74,0,0,1,0,9.47" fill="#478cd0"/>
      <path d="M241.76,1.52H220.67L207.86,40.16H221.8l2.11-6.54a1.5,1.5,0,0,1,1.43-1h11.75a1.51,1.51,0,0,1,1.43,1l2.11,6.54h13.93Zm-7,25.38h-7.15a1.14,1.14,0,0,1-1.14-1.14,1.13,1.13,0,0,1,.05-.32l3.72-11.54a1,1,0,0,1,1.88,0l3.72,11.54a1.13,1.13,0,0,1-1.08,1.46" fill="#478cd0"/>
      <path d="M132.59,26.14a1.15,1.15,0,0,1-.22-.68,1.13,1.13,0,0,1,.52-1,11.95,11.95,0,0,0-6-22.23H97.53V40.16H110V30.5a4.72,4.72,0,0,1,4.71-4.74,4.68,4.68,0,0,1,3.94,2.15l9.05,12.25h15.44Zm-11.71-7.2h-6.41a4.74,4.74,0,0,1,0-9.47h6.41a4.74,4.74,0,0,1,0,9.47" fill="#478cd0"/>
    </g>
    <g>
      <path d="M259.67,2.33h23.26v2H262V19.26h18.9v2H262V39.63h-2.28Z" fill="#478cd0"/>
      <path d="M304,39.63h-2V33.88H302a8.73,8.73,0,0,1-1.48,2.7,10.39,10.39,0,0,1-2.23,2,10,10,0,0,1-2.79,1.25,11.3,11.3,0,0,1-3.06.42,11.88,11.88,0,0,1-4-.58,7.78,7.78,0,0,1-2.67-1.51,7.34,7.34,0,0,1-1.64-2.12,10,10,0,0,1-.86-2.37,15.08,15.08,0,0,1-.31-2.33c0-.75-.05-1.4-.05-2V12.78h2v17c0,.7.06,1.54.16,2.53a7.63,7.63,0,0,0,.91,2.88,6.61,6.61,0,0,0,2.26,2.37,7.71,7.71,0,0,0,4.26,1,9.54,9.54,0,0,0,4-.84,8.71,8.71,0,0,0,3-2.33,10.14,10.14,0,0,0,1.89-3.55,15,15,0,0,0,.65-4.52V12.78h2Z" fill="#478cd0"/>
      <path d="M308.13,26.47v.31a16.13,16.13,0,0,0,.62,4.49A11.74,11.74,0,0,0,310.6,35a8.79,8.79,0,0,0,3.08,2.55,9.29,9.29,0,0,0,4.29.95,9.15,9.15,0,0,0,6.36-2.12,11.17,11.17,0,0,0,3.23-5.88h2a12,12,0,0,1-3.82,7.21A11.53,11.53,0,0,1,318,40.26a11.75,11.75,0,0,1-5.17-1.07,10.5,10.5,0,0,1-3.69-2.93,12.44,12.44,0,0,1-2.21-4.39,19.79,19.79,0,0,1-.72-5.45,19.32,19.32,0,0,1,.75-5.41,13.62,13.62,0,0,1,2.26-4.54,11.13,11.13,0,0,1,3.76-3.14,11.45,11.45,0,0,1,5.33-1.17,11.2,11.2,0,0,1,5,1,10.53,10.53,0,0,1,3.61,2.85A12.57,12.57,0,0,1,329,20.23a16.8,16.8,0,0,1,.75,5.09q0,.25,0,.6c0,.23,0,.41,0,.55Zm19.63-1.72a16,16,0,0,0-.73-4.16,10.4,10.4,0,0,0-1.84-3.45,9.27,9.27,0,0,0-3-2.37,8.74,8.74,0,0,0-4-.89,9.19,9.19,0,0,0-7.29,3.32A10.74,10.74,0,0,0,309,20.67a16.27,16.27,0,0,0-.84,4.08Z" fill="#478cd0"/>
      <path d="M334.82,2.33v37.3h-2V2.33Z" fill="#478cd0"/>
      <path d="M338.29,21a24.22,24.22,0,0,1,1.19-7.65,18.34,18.34,0,0,1,3.46-6.21A15.91,15.91,0,0,1,348.49,3a17.65,17.65,0,0,1,7.45-1.51,16.56,16.56,0,0,1,5.66.86,14.6,14.6,0,0,1,4,2.14,12.54,12.54,0,0,1,2.67,2.8,15.29,15.29,0,0,1,1.58,2.84,12.86,12.86,0,0,1,.75,2.3c.14.65.21,1,.21,1.07h-2.28a11.33,11.33,0,0,0-1.51-4.2A11.49,11.49,0,0,0,364.2,6.1a13,13,0,0,0-3.82-2,15.31,15.31,0,0,0-10.93.73,14.61,14.61,0,0,0-4.83,3.79,16.75,16.75,0,0,0-3,5.56,21.89,21.89,0,0,0-1,6.79,21.79,21.79,0,0,0,1,6.79,16.8,16.8,0,0,0,3,5.57,14.72,14.72,0,0,0,4.83,3.78,14.47,14.47,0,0,0,6.49,1.42A11.6,11.6,0,0,0,361,37.41a13.81,13.81,0,0,0,4.13-3,15,15,0,0,0,4.05-9.32h2.29a18.5,18.5,0,0,1-1.64,6.16,17.44,17.44,0,0,1-3.37,4.89,15.1,15.1,0,0,1-4.75,3.21,14.53,14.53,0,0,1-5.77,1.15A17.65,17.65,0,0,1,348.49,39a15.77,15.77,0,0,1-5.55-4.15,18.44,18.44,0,0,1-3.46-6.21A24.24,24.24,0,0,1,338.29,21Z" fill="#478cd0"/>
      <path d="M373.24,26.21a17.66,17.66,0,0,1,.8-5.41,13.68,13.68,0,0,1,2.37-4.47,11.18,11.18,0,0,1,3.84-3,12.82,12.82,0,0,1,10.48,0,11.31,11.31,0,0,1,3.85,3,13.66,13.66,0,0,1,2.36,4.47,17.66,17.66,0,0,1,.8,5.41,17.92,17.92,0,0,1-.8,5.43,13.22,13.22,0,0,1-2.36,4.46,11.28,11.28,0,0,1-3.85,3,12.82,12.82,0,0,1-10.48,0,11.15,11.15,0,0,1-3.84-3A13.24,13.24,0,0,1,374,31.64,17.92,17.92,0,0,1,373.24,26.21Zm2,0a16.13,16.13,0,0,0,.67,4.62,12.69,12.69,0,0,0,2,3.94,9.62,9.62,0,0,0,3.22,2.75,10.07,10.07,0,0,0,8.83,0,9.78,9.78,0,0,0,3.21-2.75,12.48,12.48,0,0,0,2-3.94,16.3,16.3,0,0,0,0-9.25,12.48,12.48,0,0,0-2-3.94,9.64,9.64,0,0,0-3.21-2.74,10.07,10.07,0,0,0-8.83,0,9.48,9.48,0,0,0-3.22,2.74,12.69,12.69,0,0,0-2,3.94A16.2,16.2,0,0,0,375.21,26.21Z" fill="#478cd0"/>
      <path d="M399.84,12.78h2v5.75h.1a8.68,8.68,0,0,1,1.48-2.69,10,10,0,0,1,2.24-2,9.67,9.67,0,0,1,2.77-1.26,11.81,11.81,0,0,1,3.06-.41,12.18,12.18,0,0,1,4,.57,7.63,7.63,0,0,1,2.67,1.52,7.34,7.34,0,0,1,1.64,2.11,9.84,9.84,0,0,1,.85,2.38,13.88,13.88,0,0,1,.32,2.32c0,.75.05,1.4.05,2V39.63h-2v-17c0-.65-.05-1.49-.15-2.5a7.79,7.79,0,0,0-.91-2.9,6.61,6.61,0,0,0-2.28-2.38,7.8,7.8,0,0,0-4.24-1,9.41,9.41,0,0,0-4,.83,8.85,8.85,0,0,0-3,2.33,10.23,10.23,0,0,0-1.89,3.55,14.78,14.78,0,0,0-.65,4.52V39.63h-2Z" fill="#478cd0"/>
    </g>
  </g>
</svg>
