<?xml version="1.0" encoding="UTF-8"?>
<svg id="Layer_1" xmlns="http://www.w3.org/2000/svg" version="1.1" viewBox="0 0 256 64.1">
  <!-- Generator: Adobe Illustrator 29.0.1, SVG Export Plug-In . SVG Version: 2.1.0 Build 192)  -->
  <defs>
    <style>
      .st0 {
        fill: #ff1e32;
      }

      .st1 {
        fill: #404040;
      }
    </style>
  </defs>
  <g>
    <path class="st1" d="M76.38,53.283l-2.402,7.123h-.794l-2.086-6.075-2.096,6.075h-.784l-2.402-7.123h.774l2.055,6.126,2.127-6.126h.702l2.096,6.157,2.086-6.157h.723Z"/>
    <path class="st1" d="M85.844,59.755v.651h-5.037v-7.123h4.884v.651h-4.131v2.534h3.684v.641h-3.684v2.646h4.284Z"/>
    <path class="st1" d="M99.607,60c-.566-.312-1.011-.745-1.333-1.298s-.483-1.172-.483-1.857.161-1.304.483-1.857.769-.985,1.339-1.298,1.208-.468,1.913-.468c.529,0,1.018.088,1.465.264.448.176.828.434,1.14.774l-.478.478c-.557-.563-1.259-.845-2.107-.845-.563,0-1.075.129-1.537.387-.461.258-.823.611-1.084,1.058-.261.448-.392.95-.392,1.506s.131,1.058.392,1.506.622.801,1.084,1.058c.462.258.974.387,1.537.387.855,0,1.557-.285,2.107-.855l.478.478c-.312.339-.694.599-1.145.779-.451.18-.942.27-1.47.27-.706,0-1.342-.156-1.908-.468Z"/>
    <path class="st1" d="M113.656,60.407l-1.629-2.29c-.183.02-.373.031-.57.031h-1.913v2.259h-.753v-7.123h2.666c.909,0,1.621.217,2.137.651.515.434.773,1.031.773,1.791,0,.557-.141,1.026-.422,1.41s-.684.66-1.206.829l1.74,2.442h-.824ZM113.055,57.038c.373-.312.56-.75.56-1.313,0-.577-.187-1.019-.56-1.328-.373-.309-.913-.463-1.618-.463h-1.893v3.572h1.893c.705,0,1.245-.156,1.618-.468Z"/>
    <path class="st1" d="M123.669,58.504h-3.969l-.855,1.903h-.783l3.256-7.123h.743l3.257,7.123h-.794l-.855-1.903ZM123.394,57.893l-1.71-3.826-1.71,3.826h3.419Z"/>
    <path class="st1" d="M130.304,53.934v2.798h3.684v.651h-3.684v3.022h-.753v-7.123h4.884v.651h-4.131Z"/>
    <path class="st1" d="M140.48,53.934h-2.504v-.651h5.76v.651h-2.503v6.472h-.753v-6.472Z"/>
    <path class="st1" d="M158.187,57.944v2.463h-.743v-2.463l-2.849-4.661h.804l2.442,3.999,2.443-3.999h.753l-2.849,4.661Z"/>
    <path class="st1" d="M166.15,59.994c-.573-.315-1.021-.748-1.343-1.298-.322-.549-.483-1.167-.483-1.852s.161-1.303.483-1.852c.322-.55.77-.982,1.343-1.298s1.213-.473,1.918-.473,1.342.156,1.908.468c.566.312,1.012.745,1.338,1.298s.488,1.172.488,1.857-.163,1.304-.488,1.857-.772.986-1.338,1.298c-.567.312-1.203.468-1.908.468s-1.345-.158-1.918-.473ZM169.594,59.414c.454-.254.811-.607,1.068-1.058s.387-.955.387-1.511-.129-1.06-.387-1.511-.614-.804-1.068-1.058-.963-.382-1.527-.382-1.073.127-1.531.382-.818.607-1.079,1.058-.392.955-.392,1.511.131,1.06.392,1.511.621.804,1.079,1.058.968.382,1.531.382,1.072-.127,1.527-.382Z"/>
    <path class="st1" d="M177.257,59.674c-.516-.529-.773-1.299-.773-2.31v-4.081h.753v4.05c0,.828.186,1.445.56,1.852.373.407.912.61,1.618.61.712,0,1.255-.203,1.628-.61.373-.407.56-1.024.56-1.852v-4.05h.733v4.081c0,1.011-.256,1.781-.768,2.31-.512.529-1.23.794-2.153.794s-1.642-.265-2.157-.794Z"/>
    <path class="st1" d="M192.522,60.407l-1.629-2.29c-.183.02-.373.031-.57.031h-1.913v2.259h-.753v-7.123h2.666c.909,0,1.621.217,2.137.651.515.434.773,1.031.773,1.791,0,.557-.141,1.026-.422,1.41s-.684.66-1.206.829l1.74,2.442h-.824ZM191.921,57.038c.373-.312.56-.75.56-1.313,0-.577-.187-1.019-.56-1.328-.373-.309-.913-.463-1.618-.463h-1.893v3.572h1.893c.705,0,1.245-.156,1.618-.468Z"/>
    <path class="st1" d="M205.822,53.283h2.9c.753,0,1.418.151,1.994.453.577.302,1.024.722,1.343,1.262.319.539.478,1.155.478,1.847s-.16,1.308-.478,1.847c-.319.539-.767.96-1.343,1.262-.577.302-1.241.453-1.994.453h-2.9v-7.123ZM208.682,59.755c.624,0,1.171-.124,1.638-.372.468-.248.831-.59,1.089-1.028s.387-.941.387-1.511-.129-1.074-.387-1.511-.621-.78-1.089-1.028c-.468-.248-1.014-.371-1.638-.371h-2.106v5.821h2.106Z"/>
    <path class="st1" d="M222.145,60.407l-1.629-2.29c-.183.02-.373.031-.57.031h-1.913v2.259h-.753v-7.123h2.666c.909,0,1.621.217,2.137.651.515.434.773,1.031.773,1.791,0,.557-.141,1.026-.422,1.41s-.684.66-1.206.829l1.74,2.442h-.824ZM221.544,57.038c.373-.312.56-.75.56-1.313,0-.577-.187-1.019-.56-1.328-.373-.309-.913-.463-1.618-.463h-1.893v3.572h1.893c.705,0,1.245-.156,1.618-.468Z"/>
    <path class="st1" d="M232.728,59.755v.651h-5.037v-7.123h4.884v.651h-4.131v2.534h3.684v.641h-3.684v2.646h4.284Z"/>
    <path class="st1" d="M242.02,58.504h-3.969l-.855,1.903h-.783l3.256-7.123h.743l3.257,7.123h-.794l-.855-1.903ZM241.745,57.893l-1.71-3.826-1.71,3.826h3.419Z"/>
    <path class="st1" d="M255.299,53.283v7.123h-.722v-5.699l-2.799,4.793h-.356l-2.799-4.763v5.668h-.722v-7.123h.621l3.094,5.281,3.063-5.281h.621Z"/>
  </g>
  <path class="st1" d="M241.435,14.91c-3.436,2.665-8.097,6.816-9.759,8.31-.239.215-.62.045-.62-.277V2.625c0-.345-.28-.625-.625-.625h-4.948c-.345,0-.625.28-.625.625v26.45c0,.324-.134.634-.37.857-7.362,6.971-12.643,10.145-18.586,10.252-6.376,0-11.935-5.168-11.935-11.544s5.489-11.95,11.865-11.95c3.945,0,7.635,2.41,9.696,5.32.199.281.589.346.866.14.966-.718,3.035-2.255,3.969-2.95.268-.199.331-.576.139-.848-3.233-4.579-8.567-7.57-14.599-7.57-9.863,0-17.859,7.996-17.859,17.859,0,.102.002.205.004.307.007.256-.095.505-.281.68-9.671,9.111-17.456,11.931-23.162,9.885-1.148-.428-2.201-1.029-3.132-1.768-.019-.015-.039-.029-.058-.045-.121-.097-.237-.201-.354-.302-.087-.076-.174-.149-.259-.228-3.852-3.557-5.256-9.578-2.264-14.653,3.628-6.455,12.799-7.799,18.155-2.759.286.269.262.73-.053.964l-11.023,8.167c-.266.197-.127.619.204.619h3.387c.448,0,.889-.103,1.29-.301l14.21-7.019c.298-.147.432-.503.3-.808-5.613-12.953-23.654-14.443-31.265-2.45-3.448,5.399-3.504,11.622-1.191,16.761.128.285.036.622-.221.799-7.396,5.079-13.194,5.725-13.194-4.892v-13.955c0-.345.28-.625.625-.625h9.811c.345,0,.625-.28.625-.625v-4.795c0-.345-.28-.625-.625-.625h-9.811c-.345,0-.625-.28-.625-.625V2.625c0-.345-.28-.625-.625-.625h-4.97c-.345,0-.625.28-.625.625v7.721c0,.345-.28.625-.625.625h-17.382c-7.27,0-11.904,3.907-11.904,10.388,0,5.963,5.144,9.381,11.904,9.381,3.935,0,5.944,1.975,5.944,4.887,0,2.857-2.653,4.614-5.352,4.614-7.278,0-14.336-6.379-16.086-8.077-.23-.223-.595-.223-.825,0-1.75,1.699-8.809,8.077-16.086,8.077-9.045.038-14.766-9.953-10.185-17.725,3.628-6.455,12.799-7.799,18.155-2.759.286.269.262.73-.053.964l-11.045,8.184c-.259.192-.123.602.199.602h3.433c.436,0,.866-.1,1.257-.294l14.225-7.027c.298-.147.432-.503.3-.808-5.613-12.953-23.654-14.443-31.265-2.45-7.47,11.698.954,27.275,14.98,27.271,7.299,0,14.426-5.333,16.12-6.689.221-.177.535-.177.757,0,1.694,1.356,8.821,6.689,16.12,6.689,6.725,0,12.174-3.931,12.174-10.806,0-6.288-4.641-10.773-12.996-10.773-3.331,0-4.813-1.805-4.813-3.733,0-2.217,1.702-3.861,5.043-3.861v-.011h17.382c.345,0,.625.28.625.625v14.071c0,16.176,11.354,17.959,22.801,9.558.246-.18.585-.156.805.055,1.322,1.269,2.848,2.341,4.546,3.154l.003.068c9.04,4.018,17.116.614,27.858-8.203.313-.257.784-.156.963.207,2.917,5.894,8.989,9.948,16.011,9.948,5.665,0,9.667-1.687,18.303-8.696.261-.212.652-.026.652.31v7.477c0,.345.28.625.625.625h4.948c.345,0,.625-.28.625-.625v-13.503c0-.307.136-.598.372-.795,1.638-1.363,8.333-6.928,13.162-10.862,1.994-1.625,4.429-.202,4.429,2.163v22.997c0,.345.28.625.625.625h5.03c.345,0,.625-.28.625-.625v-24.284c.124-6.851-7.985-10.956-13.864-6.396Z"/>
  <path class="st0" d="M52.531,6.574H2.145c-.969,0-1.754.785-1.754,1.754v50.386c0,.969.785,1.754,1.754,1.754h50.386c.969,0,1.754-.785,1.754-1.754V8.328c0-.969-.785-1.754-1.754-1.754ZM38.572,45.382c-2.708,1.08-7.426,2.127-11.234,2.127-3.808,0-8.526-1.047-11.234-2.127-.712-.284-1.176-.971-1.176-1.737v-18.52c0-1.787.385-2.253,2.068-1.394,2.805,1.431,6.824,2.48,10.342,2.48,3.519,0,7.537-1.049,10.342-2.48,1.682-.858,2.068-.393,2.068,1.394v18.52c0,.766-.464,1.453-1.176,1.737Z"/>
</svg>