<?xml version="1.0" encoding="UTF-8" standalone="no"?>
<svg
   viewBox="0 0 1734.76 601.6052"
   version="1.1"
   id="svg3"
   width="1734.76"
   height="601.60522"
   xmlns="http://www.w3.org/2000/svg"
   xmlns:svg="http://www.w3.org/2000/svg">
  <defs
     id="defs1">
    <style
       id="style1">.cls-1{fill:#fff;}.cls-2{fill:#7b0041;}.cls-3{fill:#1d1d1b;}</style>
  </defs>
  <g
     id="Logo"
     transform="matrix(4,0,0,4,-152.4,-125.30348)">
    <g
       id="g3">
      <path
         class="cls-2"
         d="m 85.71,37.2 h -41.6 c -3.32,0 -6.01,2.69 -6.01,6.01 v 100.18 c 0,3.32 2.69,6.01 6.01,6.01 h 42.26 c -15.87,-13.37 -26,-33.66 -26,-56.39 0,-22.73 9.85,-42.44 25.35,-55.82 v 0 z M 471.78,143.39 V 43.21 c 0,-3.32 -2.69,-6.01 -6.02,-6.01 H 184.63 c 15.49,13.37 25.35,33.41 25.35,55.82 0,22.41 -10.13,43.02 -26,56.39 h 281.79 c 3.32,0 6.02,-2.69 6.02,-6.01 v 0 z"
         id="path1" />
      <path
         class="cls-1"
         d="m 347.75,131.5 v 1.63 c 0,0.43 -0.4,0.8 -0.83,0.8 h -10.59 c -0.43,0 -0.8,-0.36 -0.8,-0.8 v -20.85 c 0,-0.43 0.37,-0.8 0.8,-0.8 h 10.33 c 0.43,0 0.8,0.37 0.8,0.8 v 1.5 c 0,0.43 -0.34,0.83 -0.8,0.83 h -7.59 v 5.96 h 6.79 c 0.43,0 0.83,0.33 0.83,0.77 v 1.4 c 0,0.46 -0.4,0.83 -0.83,0.83 h -6.79 v 7.13 h 7.86 c 0.43,0 0.83,0.37 0.83,0.8 v 0 z m -68.84,1.5 c 0.17,0.5 -0.1,0.93 -0.6,0.93 h -2.33 c -0.47,0 -0.9,-0.3 -1.03,-0.73 l -1.33,-4.93 h -7.03 l -1.27,4.93 c -0.1,0.43 -0.5,0.73 -0.97,0.73 h -2.17 c -0.5,0 -0.73,-0.43 -0.6,-0.93 l 5.96,-20.75 c 0.13,-0.46 0.6,-0.76 1.03,-0.76 h 2.93 c 0.43,0 0.83,0.26 1,0.76 l 6.4,20.75 v 0 z m -6.1,-7.79 -2.3,-8.76 c -0.23,-0.9 -0.37,-2.23 -0.5,-3.13 -0.1,0.93 -0.27,2.2 -0.5,3.13 l -2.16,8.76 z m 27.15,-4.23 h -5.63 c -0.43,0 -0.8,0.37 -0.8,0.8 v 1.57 c 0,0.43 0.37,0.8 0.8,0.8 h 2.93 v 6.56 c -0.67,0.2 -1.37,0.3 -2.13,0.3 -3.53,0 -5.63,-2.13 -5.63,-8.13 0,-6 1.8,-8.46 5.36,-8.46 1.73,0 2.9,0.4 4.06,0.97 0.4,0.2 0.8,0 0.97,-0.37 l 0.67,-1.43 c 0.2,-0.4 0.07,-0.8 -0.37,-1.03 -1.47,-0.76 -3.36,-1.26 -5.33,-1.26 -5.79,0 -9.13,4.43 -9.13,11.36 0,6.93 2.73,11.49 9.06,11.49 1.8,0 3.66,-0.33 4.93,-0.8 0.8,-0.3 1.03,-0.63 1.03,-1.4 v -10.16 c 0,-0.43 -0.37,-0.8 -0.8,-0.8 v 0 z m 25.93,1.6 c 0,7.13 -1.93,11.36 -8.26,11.36 h -5.43 c -0.43,0 -0.8,-0.36 -0.8,-0.8 v -20.85 c 0,-0.43 0.37,-0.8 0.8,-0.8 h 5.3 c 4.73,0 8.39,2.53 8.39,11.09 z m -3.73,0.2 c 0,-3.56 -0.5,-5.5 -1.5,-6.8 -0.8,-1.03 -2.1,-1.53 -3.53,-1.53 h -2.2 v 16.42 h 2.13 c 3.26,0 5.1,-1.4 5.1,-8.09 z m -70.48,-11.29 h -3.77 c -0.42,0 -0.87,0.3 -0.98,0.67 l -4.35,15.27 c -0.21,0.82 -0.34,2.24 -0.44,3.38 -0.1,-1.14 -0.23,-2.56 -0.44,-3.38 l -4.35,-15.27 c -0.1,-0.36 -0.56,-0.67 -0.98,-0.67 h -3.78 c -0.45,0 -0.84,0.33 -0.84,0.76 v 20.92 c 0,0.4 0.38,0.76 0.84,0.76 h 1.71 c 0.42,0 0.8,-0.33 0.84,-0.76 l -0.05,-13.98 c 0,-0.8 -0.17,-3.73 -0.22,-4.63 0.27,1.15 0.66,3.13 1.02,4.59 l 4.12,14.02 c 0.1,0.47 0.52,0.76 0.98,0.76 h 2.33 c 0.45,0 0.87,-0.3 0.98,-0.76 l 4.12,-14.02 c 0.36,-1.46 0.75,-3.43 1.02,-4.59 -0.05,0.9 -0.21,3.83 -0.22,4.63 l -0.05,13.98 c 0.04,0.43 0.42,0.76 0.84,0.76 h 1.69 c 0.45,0 0.84,-0.36 0.84,-0.76 v -20.92 c 0,-0.43 -0.38,-0.76 -0.84,-0.76 v 0 z m 121.52,16.12 c 0,4.03 -2.46,6.33 -6.73,6.33 h -6.99 c -0.43,0 -0.8,-0.36 -0.8,-0.76 V 112.3 c 0,-0.43 0.37,-0.8 0.8,-0.8 h 6.63 c 3.86,0 6.13,2.4 6.13,5.7 0,2.36 -1.1,4 -3.67,4.83 3.03,0.5 4.63,2.8 4.63,5.6 v 0 z m -10.99,-6.86 h 2.93 c 2.3,0 3.46,-1.27 3.46,-3.17 0,-1.9 -1.06,-3.13 -3.26,-3.13 h -3.13 z m 7.2,6.43 c 0,-2.03 -1.46,-3.63 -3.96,-3.63 h -3.23 v 7.3 h 3.8 c 2.1,0 3.4,-1.4 3.4,-3.66 v 0 z m 52.61,5.73 c 0.23,0.6 0.13,1.03 -0.57,1.03 h -2.43 c -0.47,0 -0.83,-0.13 -1,-0.7 -0.77,-2.3 -1.33,-4.66 -2.26,-6.43 -0.77,-1.46 -1.77,-2.8 -3.77,-2.8 h -1.36 v 9.16 c 0,0.4 -0.37,0.76 -0.8,0.76 h -1.93 c -0.43,0 -0.8,-0.36 -0.8,-0.76 v -20.88 c 0,-0.43 0.37,-0.8 0.8,-0.8 h 5.86 c 5.63,0 6.79,3.46 6.79,5.7 0,2.63 -1.47,4.96 -4.9,5.5 1.6,0.33 2.86,1.73 3.56,3.2 0.54,1.13 1.84,4.36 2.8,7.03 v 0 z m -5.06,-15.25 c 0,-1.6 -1.07,-3.07 -3.3,-3.07 h -3.03 v 6.56 h 2.67 c 2.3,0 3.66,-1.4 3.66,-3.5 v 0 z m 26.95,3.33 h -5.63 c -0.44,0 -0.8,0.37 -0.8,0.8 v 1.57 c 0,0.43 0.37,0.8 0.8,0.8 h 2.93 v 6.56 c -0.67,0.2 -1.37,0.3 -2.13,0.3 -3.53,0 -5.63,-2.13 -5.63,-8.13 0,-6 1.8,-8.46 5.36,-8.46 1.73,0 2.9,0.4 4.07,0.97 0.4,0.2 0.8,0 0.96,-0.37 l 0.67,-1.43 c 0.2,-0.4 0.06,-0.8 -0.37,-1.03 -1.47,-0.76 -3.36,-1.26 -5.33,-1.26 -5.8,0 -9.12,4.43 -9.12,11.36 0,6.93 2.73,11.49 9.06,11.49 1.8,0 3.66,-0.33 4.93,-0.8 0.8,-0.3 1.04,-0.63 1.04,-1.4 V 121.8 c 0,-0.43 -0.37,-0.8 -0.8,-0.8 v 0 z m -47.98,-9.49 h -1.9 c -0.5,0 -0.83,0.26 -0.83,0.8 v 14.52 c 0,3.4 -1.4,4.4 -3.87,4.4 -2.73,0 -3.7,-1.67 -3.7,-4.6 V 112.3 c 0,-0.54 -0.3,-0.8 -0.8,-0.8 h -1.93 c -0.46,0 -0.77,0.3 -0.77,0.8 v 14.69 c 0,4.53 2.33,7.16 7.26,7.16 4.93,0 7.33,-2.53 7.33,-7.16 V 112.3 c 0,-0.5 -0.33,-0.8 -0.8,-0.8 v 0 z m 30.92,-7.91 c 0.17,0.5 -0.1,0.93 -0.6,0.93 h -2.33 c -0.47,0 -0.9,-0.3 -1.04,-0.73 l -1.33,-4.93 h -7.03 l -1.27,4.93 c -0.1,0.43 -0.5,0.73 -0.96,0.73 h -2.16 c -0.5,0 -0.74,-0.43 -0.6,-0.93 l 5.96,-20.75 c 0.13,-0.46 0.6,-0.77 1.03,-0.77 h 2.93 c 0.44,0 0.83,0.27 1,0.77 l 6.39,20.75 v 0 z m -6.09,-7.79 -2.3,-8.76 c -0.24,-0.9 -0.37,-2.23 -0.5,-3.13 -0.1,0.93 -0.27,2.2 -0.5,3.13 L 415.3,95.8 Z M 404.42,82.07 h -12.99 c -0.43,0 -0.84,0.37 -0.84,0.8 v 1.63 c 0,0.43 0.4,0.77 0.84,0.77 h 4.73 v 18.45 c 0,0.43 0.37,0.8 0.8,0.8 h 1.93 c 0.43,0 0.8,-0.37 0.8,-0.8 V 85.27 h 4.73 c 0.43,0 0.76,-0.33 0.76,-0.77 v -1.63 c 0,-0.43 -0.33,-0.8 -0.76,-0.8 z m -138.9,21.82 c 0.17,0.4 0.47,0.63 0.9,0.63 h 3.13 c 0.43,0 0.83,-0.37 0.83,-0.77 V 82.83 c 0,-0.4 -0.4,-0.77 -0.83,-0.77 h -1.7 c -0.43,0 -0.8,0.37 -0.8,0.77 l 0.03,12.96 c 0,1.56 0.17,3.63 0.33,5.36 -0.47,-1.63 -0.87,-3.27 -1.46,-4.73 l -5.63,-13.76 c -0.17,-0.37 -0.63,-0.6 -1.07,-0.6 h -3.13 c -0.43,0 -0.8,0.33 -0.8,0.77 v 20.92 c 0,0.4 0.37,0.77 0.8,0.77 h 1.76 c 0.43,0 0.8,-0.37 0.8,-0.77 l -0.03,-13.19 c 0,-1.23 -0.3,-3.89 -0.47,-5.59 0.43,1.7 0.87,3.56 1.47,4.96 l 5.86,13.96 v 0 z M 235.26,97.2 V 82.88 c 0,-0.53 -0.3,-0.8 -0.8,-0.8 h -1.93 c -0.47,0 -0.77,0.3 -0.77,0.8 v 14.69 c 0,4.53 2.33,7.16 7.26,7.16 4.93,0 7.33,-2.53 7.33,-7.16 V 82.88 c 0,-0.5 -0.33,-0.8 -0.8,-0.8 h -1.9 c -0.5,0 -0.83,0.27 -0.83,0.8 V 97.4 c 0,3.4 -1.4,4.4 -3.86,4.4 -2.73,0 -3.7,-1.67 -3.7,-4.59 v 0 z M 412.73,78.31 c 0,1.1 0.87,2 1.93,2 1.06,0 1.96,-0.9 1.96,-2 0,-1.1 -0.9,-1.93 -2,-1.93 -1.03,0 -1.9,0.83 -1.9,1.93 v 0 z m 8.73,2 c 1.1,0 1.96,-0.9 1.96,-2 0,-1.1 -0.9,-1.93 -2,-1.93 -1.03,0 -1.9,0.83 -1.9,1.93 0,1.1 0.86,2 1.93,2 v 0 z m 23.09,1.77 h -12.99 c -0.43,0 -0.84,0.37 -0.84,0.8 v 1.63 c 0,0.43 0.4,0.77 0.84,0.77 h 4.73 v 18.45 c 0,0.43 0.37,0.8 0.8,0.8 h 1.93 c 0.43,0 0.8,-0.37 0.8,-0.8 V 85.28 h 4.73 c 0.43,0 0.77,-0.33 0.77,-0.77 v -1.63 c 0,-0.43 -0.33,-0.8 -0.77,-0.8 z M 327.67,101.3 h -7.86 v -7.13 h 6.8 c 0.43,0 0.83,-0.37 0.83,-0.83 v -1.4 c 0,-0.43 -0.4,-0.77 -0.83,-0.77 h -6.8 v -5.96 h 7.59 c 0.47,0 0.8,-0.4 0.8,-0.83 v -1.5 c 0,-0.43 -0.37,-0.8 -0.8,-0.8 h -10.32 c -0.43,0 -0.8,0.37 -0.8,0.8 v 20.85 c 0,0.43 0.37,0.8 0.8,0.8 h 10.59 c 0.44,0 0.84,-0.37 0.84,-0.8 v -1.63 c 0,-0.43 -0.4,-0.8 -0.84,-0.8 z m 31.48,2.46 c 1.4,0.53 3.5,0.97 5.43,0.97 4.63,0 7.36,-2.7 7.36,-6.59 0,-3.53 -2.03,-5.06 -4.39,-6.16 l -1.8,-0.83 c -1.77,-0.83 -3.26,-1.5 -3.26,-3.27 0,-1.77 1.1,-2.93 3.26,-2.93 1.5,0 2.4,0.33 3.46,0.7 0.43,0.13 0.8,-0.1 0.9,-0.5 l 0.37,-1.5 c 0.1,-0.4 -0.04,-0.83 -0.43,-0.97 -1.13,-0.4 -2.76,-0.8 -4.36,-0.8 -4.26,0 -6.79,2.63 -6.79,6.16 0,3.23 1.87,4.63 3.93,5.6 l 1.37,0.63 c 2.06,0.97 4.13,1.87 4.13,4.13 0,2.06 -1.6,3.16 -3.8,3.16 -1.66,0 -3.2,-0.5 -4.46,-0.97 -0.46,-0.17 -0.9,0.07 -1,0.5 l -0.4,1.67 c -0.1,0.4 0.07,0.83 0.5,1 v 0 z m -7.1,-0.27 c 0.23,0.6 0.13,1.03 -0.57,1.03 h -2.43 c -0.47,0 -0.83,-0.13 -1,-0.7 -0.77,-2.3 -1.33,-4.66 -2.26,-6.43 -0.77,-1.46 -1.77,-2.8 -3.76,-2.8 h -1.36 v 9.16 c 0,0.4 -0.37,0.77 -0.8,0.77 h -1.93 c -0.43,0 -0.8,-0.37 -0.8,-0.77 V 82.87 c 0,-0.43 0.37,-0.8 0.8,-0.8 h 5.86 c 5.63,0 6.79,3.47 6.79,5.7 0,2.63 -1.47,4.96 -4.9,5.5 1.6,0.33 2.87,1.73 3.56,3.2 0.53,1.13 1.83,4.36 2.8,7.03 v 0 z m -5.06,-15.26 c 0,-1.6 -1.07,-3.06 -3.3,-3.06 h -3.03 v 6.56 h 2.66 c 2.3,0 3.66,-1.4 3.66,-3.5 v 0 z m 36.6,15.49 V 82.87 c 0,-0.43 -0.37,-0.8 -0.8,-0.8 h -2.06 c -0.43,0 -0.8,0.37 -0.8,0.8 v 20.85 c 0,0.43 0.37,0.8 0.8,0.8 h 2.06 c 0.44,0 0.8,-0.37 0.8,-0.8 z M 282.98,82.07 h -2.07 c -0.43,0 -0.8,0.37 -0.8,0.8 v 20.85 c 0,0.43 0.37,0.8 0.8,0.8 h 2.07 c 0.43,0 0.8,-0.37 0.8,-0.8 V 82.87 c 0,-0.43 -0.37,-0.8 -0.8,-0.8 z m 24.9,0 h -2 c -0.53,0 -0.87,0.3 -1,0.83 l -3.83,15.06 c -0.27,1.07 -0.5,2.83 -0.7,4.37 -0.13,-1.54 -0.43,-3.3 -0.7,-4.37 l -3.83,-15.09 c -0.13,-0.53 -0.5,-0.8 -1.03,-0.8 h -2.3 c -0.5,0 -0.77,0.43 -0.63,0.93 l 6.16,20.78 c 0.13,0.43 0.57,0.73 1,0.73 h 2.53 c 0.43,0 0.87,-0.3 1,-0.73 l 5.96,-20.82 c 0.13,-0.46 -0.13,-0.9 -0.63,-0.9 v 0 z M 437.45,67 h 6.74 c 0.28,0 0.53,-0.23 0.53,-0.51 v -1.04 c 0,-0.27 -0.26,-0.51 -0.53,-0.51 h -5 V 60.4 h 4.32 c 0.28,0 0.53,-0.24 0.53,-0.53 v -0.89 c 0,-0.27 -0.25,-0.49 -0.53,-0.49 h -4.32 V 54.7 h 4.83 c 0.3,0 0.51,-0.25 0.51,-0.53 v -0.95 c 0,-0.28 -0.23,-0.51 -0.51,-0.51 h -6.57 c -0.28,0 -0.51,0.23 -0.51,0.51 v 13.27 c 0,0.28 0.23,0.51 0.51,0.51 z m -7.05,0 h 1.72 c 0.36,0 0.49,-0.25 0.27,-0.59 l -4.56,-7.31 4.13,-5.79 c 0.17,-0.25 0.15,-0.59 -0.28,-0.59 h -1.61 c -0.32,0 -0.51,0.09 -0.68,0.34 l -3.73,5.66 v -5.49 c 0,-0.28 -0.23,-0.51 -0.51,-0.51 h -1.23 c -0.28,0 -0.51,0.23 -0.51,0.51 v 13.29 c 0,0.25 0.23,0.48 0.51,0.48 h 1.23 c 0.28,0 0.51,-0.23 0.51,-0.48 v -6.93 l 4.01,7.04 c 0.17,0.3 0.4,0.38 0.72,0.38 v 0 z m -14.72,0.13 c 1.17,0 2.04,-0.23 2.78,-0.61 0.19,-0.08 0.32,-0.34 0.19,-0.62 l -0.47,-1.02 c -0.08,-0.21 -0.34,-0.3 -0.59,-0.19 -0.42,0.19 -1.14,0.4 -1.65,0.4 -2.05,0 -3.46,-1.5 -3.46,-5.28 0,-3.78 1.31,-5.26 3.46,-5.26 0.59,0 1.1,0.15 1.57,0.36 0.28,0.13 0.49,0.04 0.61,-0.19 l 0.45,-0.87 c 0.15,-0.28 0.04,-0.55 -0.21,-0.7 -0.79,-0.47 -1.76,-0.57 -2.59,-0.57 -3.43,0 -5.66,2.82 -5.66,7.21 0,4.73 2.1,7.33 5.57,7.33 v 0 z M 402.89,67 h 1.31 c 0.28,0 0.51,-0.23 0.51,-0.51 V 53.22 c 0,-0.28 -0.23,-0.51 -0.51,-0.51 h -1.31 c -0.28,0 -0.51,0.23 -0.51,0.51 v 13.27 c 0,0.28 0.23,0.51 0.51,0.51 z M 388.04,66.51 V 53.22 c 0,-0.28 0.23,-0.51 0.51,-0.51 h 3.73 c 3.58,0 4.33,2.21 4.33,3.62 0,1.67 -0.93,3.16 -3.11,3.5 1.01,0.21 1.82,1.1 2.27,2.03 0.34,0.72 1.17,2.78 1.78,4.47 0.15,0.38 0.08,0.66 -0.36,0.66 h -1.55 c -0.3,0 -0.53,-0.09 -0.64,-0.45 -0.49,-1.46 -0.85,-2.97 -1.44,-4.09 -0.49,-0.93 -1.12,-1.78 -2.4,-1.78 h -0.87 v 5.83 c 0,0.25 -0.23,0.49 -0.51,0.49 h -1.23 c -0.28,0 -0.51,-0.23 -0.51,-0.49 v 0 z m 2.25,-7.65 h 1.7 c 1.46,0 2.33,-0.89 2.33,-2.23 0,-1.02 -0.68,-1.95 -2.1,-1.95 h -1.93 z m -7.6,7.63 v -1.04 c 0,-0.27 -0.25,-0.51 -0.53,-0.51 h -5 V 60.4 h 4.32 c 0.28,0 0.53,-0.24 0.53,-0.53 v -0.89 c 0,-0.27 -0.25,-0.49 -0.53,-0.49 h -4.32 V 54.7 h 4.83 c 0.3,0 0.51,-0.25 0.51,-0.53 v -0.95 c 0,-0.28 -0.23,-0.51 -0.51,-0.51 h -6.57 c -0.28,0 -0.51,0.23 -0.51,0.51 v 13.27 c 0,0.28 0.23,0.51 0.51,0.51 h 6.74 c 0.28,0 0.53,-0.23 0.53,-0.51 z m -18.49,0.64 c 3.05,0 4.66,-1.61 4.66,-4.56 v -9.35 c 0,-0.32 -0.21,-0.51 -0.51,-0.51 h -1.21 c -0.32,0 -0.53,0.17 -0.53,0.51 v 9.24 c 0,2.16 -0.89,2.8 -2.46,2.8 -1.74,0 -2.35,-1.06 -2.35,-2.92 v -9.11 c 0,-0.34 -0.19,-0.51 -0.51,-0.51 h -1.23 c -0.3,0 -0.49,0.19 -0.49,0.51 v 9.35 c 0,2.88 1.48,4.56 4.62,4.56 v 0 z m -11.08,-8.37 h -3.58 c -0.27,0 -0.51,0.23 -0.51,0.51 v 1 c 0,0.28 0.23,0.51 0.51,0.51 h 1.87 v 4.18 c -0.42,0.13 -0.87,0.19 -1.36,0.19 -2.25,0 -3.58,-1.36 -3.58,-5.17 0,-3.81 1.15,-5.38 3.41,-5.38 1.1,0 1.84,0.25 2.59,0.61 0.25,0.13 0.51,0 0.61,-0.23 l 0.42,-0.91 c 0.13,-0.25 0.04,-0.51 -0.23,-0.66 -0.93,-0.49 -2.14,-0.8 -3.39,-0.8 -3.69,0 -5.81,2.82 -5.81,7.23 0,4.41 1.74,7.31 5.77,7.31 1.15,0 2.33,-0.21 3.14,-0.51 0.51,-0.19 0.66,-0.4 0.66,-0.89 v -6.46 c 0,-0.28 -0.23,-0.51 -0.51,-0.51 v 0 z m -23.45,-6.04 h -1.08 c -0.28,0 -0.51,0.23 -0.51,0.49 l 0.02,8.25 c 0,1 0.11,2.31 0.21,3.41 -0.29,-1.04 -0.55,-2.08 -0.93,-3.01 l -3.58,-8.75 c -0.11,-0.23 -0.4,-0.38 -0.68,-0.38 h -1.99 c -0.28,0 -0.51,0.21 -0.51,0.49 v 13.31 c 0,0.26 0.23,0.49 0.51,0.49 h 1.12 c 0.28,0 0.51,-0.23 0.51,-0.49 l -0.02,-8.39 c 0,-0.78 -0.19,-2.48 -0.29,-3.56 0.27,1.08 0.55,2.27 0.93,3.16 l 3.73,8.88 c 0.11,0.26 0.3,0.4 0.57,0.4 h 1.99 c 0.28,0 0.53,-0.23 0.53,-0.49 V 53.22 c 0,-0.25 -0.25,-0.49 -0.53,-0.49 v 0 z M 310.6,67.13 c -3.31,0 -5,-2.33 -5,-7.21 0,-4.88 1.67,-7.33 5,-7.33 3.33,0 4.96,2.4 4.96,7.33 0,4.93 -1.67,7.21 -4.96,7.21 z m 2.63,-7.27 c 0,-3.05 -0.47,-5.47 -2.65,-5.47 -2.35,0 -2.63,2.65 -2.63,5.47 0,3.58 0.64,5.4 2.63,5.4 2.1,0 2.65,-2.1 2.65,-5.4 z m -17.83,6.68 c 0.08,0.27 0.36,0.47 0.63,0.47 h 1.61 c 0.27,0 0.55,-0.19 0.63,-0.47 l 3.8,-13.25 c 0.08,-0.3 -0.09,-0.57 -0.4,-0.57 h -1.27 c -0.34,0 -0.55,0.19 -0.64,0.53 l -2.44,9.58 c -0.17,0.68 -0.32,1.8 -0.44,2.78 -0.08,-0.98 -0.27,-2.1 -0.44,-2.78 L 294,53.23 c -0.09,-0.34 -0.32,-0.51 -0.66,-0.51 h -1.46 c -0.32,0 -0.49,0.28 -0.4,0.59 z m -26.58,-6.61 c 0,-4.81 1.67,-7.33 5,-7.33 3.33,0 4.96,2.4 4.96,7.33 0,4.93 -1.67,7.21 -4.96,7.21 -3.29,0 -5,-2.33 -5,-7.21 z m 2.35,-0.06 c 0,3.58 0.64,5.4 2.63,5.4 2.1,0 2.65,-2.1 2.65,-5.4 0,-3.05 -0.47,-5.47 -2.65,-5.47 -2.35,0 -2.63,2.65 -2.63,5.47 z m -14.22,-5.11 h 3.01 V 66.5 c 0,0.28 0.23,0.51 0.51,0.51 h 1.23 c 0.27,0 0.51,-0.23 0.51,-0.51 V 54.76 h 3.01 c 0.28,0 0.49,-0.21 0.49,-0.49 v -1.04 c 0,-0.28 -0.21,-0.51 -0.49,-0.51 h -8.27 c -0.28,0 -0.53,0.23 -0.53,0.51 v 1.04 c 0,0.28 0.25,0.49 0.53,0.49 z m -4.13,-2.04 h -8.27 c -0.27,0 -0.53,0.23 -0.53,0.51 v 1.04 c 0,0.28 0.25,0.49 0.53,0.49 h 3.01 V 66.5 c 0,0.28 0.23,0.51 0.51,0.51 h 1.23 c 0.28,0 0.51,-0.23 0.51,-0.51 V 54.76 h 3.01 c 0.28,0 0.49,-0.21 0.49,-0.49 v -1.04 c 0,-0.28 -0.21,-0.51 -0.49,-0.51 z m -21.65,7.21 c 0,-4.81 1.67,-7.33 5,-7.33 3.33,0 4.96,2.4 4.96,7.33 0,4.93 -1.67,7.21 -4.96,7.21 -3.29,0 -5,-2.33 -5,-7.21 z m 2.35,-0.06 c 0,3.58 0.63,5.4 2.63,5.4 2.1,0 2.65,-2.1 2.65,-5.4 0,-3.05 -0.47,-5.47 -2.65,-5.47 -2.35,0 -2.63,2.65 -2.63,5.47 z"
         id="path2" />
      <path
         class="cls-3"
         d="m 130.76,116.97 c 0,-0.21 -0.51,-0.12 -0.73,-0.12 -0.29,0 -0.4,0.68 -0.63,0.52 -0.59,-0.4 -1.26,-1.02 -1.29,-1.86 l -1.8,0.06 c -0.02,-0.49 -1.14,-0.19 -0.97,0.48 0.22,0 1.07,0.08 1.06,-0.06 0.75,0.82 1.55,0.86 1.86,1.42 0.46,0.83 0.21,1.76 0.87,2.16 0.16,-1.7 1.69,-1.4 1.64,-2.6 v 0 z m 23.91,-37.43 c 0,-0.56 -0.08,-0.7 -0.17,-1.34 l -0.5,0.57 c -0.33,-0.1 -0.81,-1.34 -1.23,-1.82 l -0.9,0.16 c 0.38,1.12 1.69,1.45 1.42,2.38 -0.05,0.15 0.94,0.34 1.37,0.04 v 0 z m -5.84,0.32 c 1.09,4.92 4.34,5.07 4.34,5.07 l 0.63,-0.66 c 0,0 -3.25,-0.15 -4.34,-5.07 -0.26,0.15 -0.63,0.66 -0.63,0.66 z m -8.91,4.53 -1.5,0.03 v 0.63 l 1.02,-0.02 0.02,0.93 h 0.58 z m 2.27,-4.05 c 0,0 -0.32,2.55 1.99,2.29 l -0.36,0.29 c -2.38,0.19 -1.99,-2.29 -1.63,-2.58 z m 2.6,0.67 -1.37,0.02 v -0.78 l 1.36,-0.02 v 0.78 z m -10.3,0.75 c 0,0.28 -0.06,0.64 0.02,1.06 l 1.59,0.04 -0.23,-0.56 c 0,0 0.07,-0.35 0.06,-0.57 l 0.65,-0.29 c 0.87,0.12 1.22,2.01 3.02,1.7 0.07,-0.01 -0.04,-0.62 -0.04,-0.62 -1.67,-0.32 -1.75,-1.24 -1.75,-1.24 1.2,-1.93 3.22,-1.97 3.22,-1.61 l -0.2,0.85 c 0.03,1.9 0.49,3.59 2.73,3.55 1.59,-0.03 2.87,-0.9 3.29,-2.25 0.36,0.2 0.69,0.66 0.88,1.11 0.3,0.7 0.01,0.77 0.02,1.34 0,0.21 -0.86,0.16 -0.56,1.14 l 1.09,0.05 0.84,-1.36 c -0.03,-1.76 -1.88,-4.48 -3.77,-5.15 -0.58,-0.2 -1.53,-0.61 -2.61,-0.66 l -2.31,0.04 c -0.65,0.08 -1.58,0.73 -1.58,0.73 -1.12,0.3 -1.03,-0.97 -1.03,-0.97 0.5,-0.67 0.56,-0.86 2.58,-1.46 l 2.67,-0.19 c -0.12,-0.22 0.16,-0.78 0.16,-0.78 -4.98,0.02 -6.54,2.14 -6.85,2.46 -0.14,0.14 -0.99,1.22 -0.99,1.43 0,0.07 0.94,0.19 0.94,0.19 l 0.28,-0.57 c 0.36,0.06 0.87,-0.02 0.87,0.34 0.01,0.85 -0.64,0.51 -0.63,1.5 h -0.58 c -0.87,0.03 -1.81,-0.24 -1.79,0.75 v 0 z m -1.34,12.55 -0.65,0.02 c 0.04,0.42 0.18,0.65 0.33,1.05 0.23,0.61 -0.26,0.93 0.84,1.45 l 0.07,1.98 h 0.62 l -0.09,-2.6 -0.55,0.06 z m 4.28,-22.34 c -0.65,-0.06 -1.13,1.64 -2.79,1.82 -2.23,0.23 -3.06,-1.5 -3.8,-2.96 0.07,-0.14 -0.24,-1.48 -0.32,-1.62 l -0.57,0.29 c 0.04,2.33 0.95,5.06 3.27,5.8 l 0.03,1.98 0.72,-0.08 c 0.29,0 0.35,-0.92 0.63,-1.49 0.07,-0.14 1,-0.86 1.72,-1.02 1.01,-0.16 2.16,-0.39 3.53,-0.42 v -0.85 l -1.67,0.03 -0.58,-0.27 0.35,-0.85 c -0.07,-0.14 -0.29,-0.32 -0.51,-0.34 v 0 z m 18.05,5.1 c 0.08,0.28 -1.46,-2.51 -2.05,-3.28 -0.88,-1.11 -1.32,-1.11 -2.13,-2.15 -0.44,-0.63 -1.18,-2.65 -1.96,-2.71 -2.39,-0.17 -4,1.26 -5.22,1.36 -0.66,0.05 0.49,-0.78 0.49,-0.78 0.21,-0.64 -4.2,-0.84 -4.2,-0.84 0,0 -3.25,-0.01 -3.44,1.47 v 0.57 l 2.71,0.45 c 1.16,0.33 1.37,-0.1 2.75,0.09 l 2.53,-0.05 2.24,-0.68 1.19,0.11 c 0.36,0 0.71,0.5 0.85,0.77 0.82,1.61 1.68,1.8 2.9,2.98 2.32,2.24 2.34,3.13 3.35,2.69 v 0 z m -39.76,2.39 -0.4,0.93 -0.03,-0.92 0.43,-0.02 v 0 z m -3.33,-0.16 c 0,0 0.73,0.29 0.96,0.67 0.15,0.24 0.17,0.7 0.17,0.7 -0.38,0.58 -1.83,-0.64 -1.13,-1.37 z m 11.97,28.58 c 0.76,-0.8 0.31,-1.44 0.81,-1.37 0.65,0.09 1.09,1.33 1.09,1.33 0,0 0.04,0.51 0.83,1.23 0.84,0.78 3.29,0.89 4.42,1.41 l 2.34,2.69 c -1.12,-0.14 -2.06,-0.7 -2.79,-1.12 -3.26,-2.05 -5.64,0.53 -5.64,0.53 -2.15,-2.01 -3.06,-1.51 -6.93,0.51 -1.07,0.56 -1.73,-0.34 -0.66,-0.52 0.3,-0.15 1.49,-2.46 2.31,-2.65 1.28,-0.31 3.12,-0.88 4.23,-2.03 v 0 z m 47.5,-2.11 c -2.16,0.21 -3.38,-1.58 -3.38,-1.58 -2.73,4.76 -5.29,1.74 -5.29,1.74 0.02,-3.39 -4.31,17.23 -4.97,20.39 -1.24,2.34 -5.89,10.77 -20.21,15.04 l 0.53,-0.28 c 1.22,-0.7 1.6,-1.74 2.46,-2.97 0.74,-1.07 1.38,-1.6 1.76,-2.82 0.08,-0.25 -0.21,-0.7 -0.54,-1.26 0.64,-0.02 2.73,-1.84 3.35,-2.47 1.87,-1.88 3.48,-2.94 5.13,-4.88 2.13,-2.56 4.09,-3.97 5.65,-6.52 1.08,-1.79 1.46,-3.14 1.75,-5.37 0.46,-3.24 1.89,-7.33 2.06,-10.76 -1.08,1.92 -1.53,3.28 -1.91,4.77 -0.63,2.38 -0.73,3.79 -1.37,5.96 -0.64,2.18 -0.87,3.86 -2.24,5.46 -1.17,1.38 -2.42,2.37 -3.75,3.36 -3.76,2.85 -6.21,7.15 -11.47,8.24 -2.58,-1.92 -5.84,-3.85 -6.74,-3.74 0,0 -1.16,0.32 -1.87,0.35 l -0.3,1.84 c 0,0 1.04,0.42 1.02,0.18 -0.11,-1.13 0.89,-1.21 0.84,-0.67 -0.05,0.57 0.87,4.07 -0.59,5.88 -0.26,0.33 0.12,-4.8 -1.45,-4.19 l -0.57,2.35 -0.72,0.02 c 0,0 0.13,-0.5 0.08,-1.98 -0.05,-1.43 -0.47,-2.64 -2.68,-3.76 -0.47,-0.24 -0.5,2.89 -0.95,3.39 l -1.64,0.76 c -0.3,-1.03 -0.73,-2.38 -0.23,-2.39 1.52,-0.05 0.83,-1.32 1.22,-2.23 0.25,-0.58 0.68,-0.74 0.58,-1.51 -0.4,-3.09 0.06,-6.94 -0.45,-6.92 -0.42,0.01 -0.77,0.23 -1.08,-0.03 -0.32,-0.28 -0.04,-1.06 -0.04,-1.06 -1.58,0.2 -0.92,6.74 -0.92,6.74 -0.66,0.93 -2.04,1.85 -2.7,2.51 0,0 -0.49,0.38 -0.59,0.33 -1.86,-0.01 -3.75,3.15 -3.75,3.15 -0.71,0.16 -3.19,-4.27 -3.3,-4.19 -0.34,-1.47 0.3,-0.48 -0.85,-3.66 -0.18,-1.2 -1.5,-6.07 -1.69,-6.35 -2.63,-2.67 -2.34,-14.46 -3.47,-17.43 -0.68,-1.77 -3.07,-2.36 -3.31,-4.46 -0.42,-3.69 0.2,-5.31 0.85,-8.64 0.18,-0.95 0.03,-1.57 0.49,-2.44 0.53,-1 1.12,-1.82 2.3,-1.88 1.08,-0.05 1.31,1.01 2.22,1.55 0.79,0.46 1.15,1.02 2.06,1.13 3.34,0.38 3.01,-0.67 3.01,-0.67 l 1.63,-0.9 c -0.52,-0.34 -1.35,0.25 -2.23,0.29 -0.99,0.04 -1.6,0.11 -2.53,-0.2 -0.96,-0.31 -2.76,-0.91 -2.01,-1.55 0.52,-0.45 0.82,0.82 1.81,0.08 0,0 -1.6,-1.36 -1.1,-2.43 -0.32,-0.32 0.16,-0.76 0.54,-1.01 0.33,-0.21 0.72,-0.24 1,-0.25 0,0 -0.4,1.48 -0.06,2.33 0.39,0.96 1.09,1.44 2.15,1.69 0.66,0.16 1.09,0.08 1.73,-0.13 0.94,-0.31 1.64,-0.69 1.82,-1.69 0.11,-0.6 0.04,-0.99 0.23,-1.56 0,0 0.61,0.9 1.21,1.44 0.38,0.34 0,0.83 0.26,1.26 0.19,0.29 0.39,0.43 0.74,0.54 0.49,0.15 0.9,0.12 1.71,-0.62 0.14,-0.27 0.23,-0.41 0.05,-0.78 -0.39,-0.76 -0.91,0.74 -3.56,-2.49 -0.6,-0.73 -1.27,-0.81 -2.2,-1.05 -1.12,-0.29 -1.75,-0.36 -2.97,-0.18 -0.32,0.11 -0.4,-0.02 -0.74,-0.61 0,0 0.3,-0.37 0.56,-0.51 1.47,-0.8 3.54,0.09 4.32,-0.58 -1.16,-0.24 -0.61,-0.51 -1.1,-0.6 -1.67,-0.29 -1.23,-0.17 -3.83,-0.08 0,0 -1.51,0.26 -2.42,1.07 -0.8,0.71 -1.74,1.9 -1.74,1.9 -0.35,0.19 -0.64,-0.56 -0.75,-0.68 0,0 0.85,-1.97 1.85,-2.89 1.03,-0.94 1.98,-1.2 3.19,-1.74 1.09,-0.48 1.87,0.11 3.05,0.32 1.28,0.22 1.83,0.5 3.21,0.88 0.94,0.25 0.8,1.42 1.72,1.77 0.24,0.09 0.47,-0.05 0.65,0.12 0.21,0.19 0.14,0.49 -0.05,0.71 -0.4,0.47 -1,-0.09 -1.6,-0.3 -0.35,-0.12 -0.44,-0.41 -0.81,-0.47 -0.25,-0.04 -0.39,0.06 -0.65,0.09 -0.87,0.11 1.11,0.76 1.71,1.35 0.71,0.7 0.61,1.67 1.59,1.99 0.45,0.15 0.82,-0.14 1.23,0.1 0.5,0.29 0.5,0.77 0.55,1.32 0.02,0.23 0.03,0.44 0.02,0.63 -0.04,1.59 -1.21,2.12 -1.52,2.45 -1.1,1.18 -0.5,6.27 -0.35,8.48 0,0 -2.83,4.94 -0.89,7.43 0.6,0.77 0.6,0.79 2.22,2.21 0,0 -1.16,3.35 -2.02,3.57 -0.79,-0.17 -5.14,1.37 -6.04,4.36 l -0.12,0.81 c 0.01,0.31 -2.24,0.46 -3.9,-1.07 -0.46,-0.42 -0.79,3.08 -0.08,5 0.32,0.93 0.81,2.66 3.22,2.04 0.82,-0.05 2.53,-0.38 3.11,-1.05 0.15,0.15 4.09,2.34 5.74,2.29 2.15,-0.08 3.01,-1.41 3,-1.71 0,0 -0.87,-0.04 -1.88,0.07 -3.5,0.37 -3.23,-1.58 -3.23,-1.58 1.34,-0.82 1.48,-1.02 3.12,-0.77 1.32,0.2 1.51,0.28 2.31,0.68 0.16,0.02 0.58,0.02 0.79,-0.05 1.06,-0.37 2.18,-1.08 4.66,-0.66 0.56,0.09 2.51,1.35 4.59,0.54 l -0.6,-0.25 1.08,0.03 -0.48,0.22 c 1.16,0.44 0.63,-0.12 2,-0.07 1.81,0.08 1.08,4.13 5.54,3.48 2.01,-0.29 1.61,-7.54 1.61,-7.54 l -0.94,0.03 c 0.01,2.47 -0.78,4.13 -1.43,4.18 -1.44,0.12 -1.44,-1.54 -4.38,-2.78 0,0 -1,-1.28 0.37,-1.12 1.09,0.13 1.2,2.11 3.92,1.48 l 0.02,-2.21 c -4.12,0.14 -4.08,-3.73 -8.48,-3.65 -1.48,0.02 0.48,1.25 -1.32,1.39 -1.22,0.09 -0.57,-0.68 -2.7,-0.33 -0.57,0.09 -1.51,-1.35 -1.38,-2.25 0.12,-0.85 0.93,-0.26 1.12,-1.1 0,0 -1.03,-3.02 1,-2.88 0.98,0.07 2.77,2.87 3.74,-0.41 0.51,-0.02 -0.44,-0.12 -0.44,-0.12 -0.25,-0.23 -0.18,1.07 -0.99,0.67 -1.32,-0.66 -0.84,-1.24 -2.93,-1.03 -3.04,0.31 -2.16,3.3 -3.01,2.72 -4.52,-3.09 -6.46,-4.79 -3.68,-10.11 l 0.4,1.05 c -0.18,-3.17 -0.58,-8.45 0.08,-10.03 0.29,-0.67 0.4,-1.94 0.56,-2.92 0.52,-3.13 0.49,-6.78 -0.62,-7.17 -3.48,-1.22 -2.64,-4.43 -6.23,-4.85 l -6.58,0.19 c 0,0 -0.92,-3.76 3.37,-5.04 0,0 -0.5,-5.07 0.93,-6.39 1.12,-1.03 3.18,0.03 2.34,-3.33 -0.15,-0.61 -0.56,-0.58 -0.9,-0.95 -0.79,-0.89 -1.17,-0.38 -1.96,-2.33 -0.51,-1.25 2.35,-3.19 2.35,-3.19 10.03,1.63 13.42,-7.08 13.42,-7.08 3.72,6.71 12.04,5.96 12.04,5.96 2.01,0.07 4.16,0.12 6.1,2.48 1.33,1.61 1.61,2.81 3.72,3.91 2.19,1.13 4,-0.27 4,-0.27 -2.3,-0.19 -3.91,-1.43 -4.89,-3.34 -3.55,-6.93 -6.96,-6.54 -7.92,-6.25 0.86,-0.4 0.8,-1.26 3.85,-0.85 4.44,0.6 6.61,8.05 9.46,8.41 4.35,0.56 4.24,1.32 3.23,5.31 -1.27,4.99 -1.5,9.55 -0.04,15.39 0.88,3.54 3.46,4.98 3.77,8.62 0.49,5.77 -2,7.59 -0.1,13.7 1.3,4.19 -0.84,8.93 3.86,11.16 l 0.55,-0.73 c -4.57,-2.52 -1.67,-6.44 -1.67,-6.44 -0.05,6.92 5.6,7.29 5.6,7.29 -1.87,-1.28 -0.37,-2.25 -0.37,-2.25 2.43,-0.79 3.77,3.62 0.72,3.93 v 0 z m -54.54,29.01 c 0.03,0.94 0.2,1.54 0.09,2.49 -0.24,-0.6 -0.93,-1.92 -0.93,-1.92 0.14,-0.07 0.66,-1.71 0.65,-1.91 0.24,-1.42 0.7,-2.65 1.83,-3.02 -0.12,0.61 -0.56,1.01 -1.07,2.12 -0.53,1.16 -0.6,1.3 -0.57,2.24 z m -5.16,1.44 c 1.81,5.53 8.44,6.24 10.47,7.01 0.68,0.26 1.79,0.22 1.79,0.22 l -1.09,7 c -13.83,15.69 -19.5,26.81 -19.5,26.81 -1.99,-9.22 -1.18,-27.68 -1.18,-27.68 0,0 5.09,-7.27 9.5,-13.35 v 0 z m 16.67,14.59 0.82,-6.15 c 25.39,-2.98 30.1,-16.92 30.1,-16.92 0,0 1.48,-2.34 1.72,-1.59 3.54,10.88 10.01,20.51 10.01,20.51 L 152.7,178.1 c -1.01,-1.18 -21.69,-26.31 -23.87,-27.3 v 0 z M 92.82,110.77 c 0.12,3.53 -3.21,5.48 -6.24,5.58 0,0 -0.09,-0.35 -0.38,-0.55 3.03,-0.11 6.12,-1.69 6,-5.22 0,0 0.61,-0.09 0.62,0.19 z M 196.64,97.21 c 0.08,-8.05 -4.81,-5.35 -6.47,-9.45 -1.58,-3.89 1.32,-7.73 -1.96,-10.52 -1.17,-1 -2.22,-1.02 -3.53,-1.85 -3.49,-2.21 -6.07,-5.23 -7.41,-7.36 -1.3,-2.07 0.1,-4.15 -1.23,-6.31 -0.71,-1.15 -1.79,-1.37 -2.33,-2.6 -0.55,-1.25 0.63,-2.43 -0.27,-3.45 -1.51,-1.71 -2.92,-3.07 -4.14,-6.92 -3.7,-11.67 -8.45,-10.15 -9.48,-10.82 -2.85,-1.84 -7.77,-4.08 -11.38,-5.04 -4.23,-1.12 -6.77,-1.49 -10.03,-1.56 -5.06,-0.1 -6.05,1.65 -6.81,1.58 -9.93,-0.85 -14.52,2.2 -20.28,5.09 -7.16,3.59 -11.07,10.06 -12.88,15.91 -0.91,2.91 -1.72,4.51 -2.77,7.51 -0.66,1.86 -1.77,3.1 -3.33,3.93 -1.42,0.75 -2.4,1.56 -4.35,1.63 -1.66,0.06 -3.83,0.95 -4.27,1.85 l 0.11,3.23 c 0,0 0.94,-0.28 2.47,-1.69 1.19,-1.1 2.24,0.06 4.93,0.39 6.29,0.2 9.74,-3.69 10.1,-4.52 0.54,-1.15 0,-4.31 0.7,-4.83 l 1.01,-0.04 c -0.23,1.89 0.13,4.14 -1.37,6.19 -1.89,2.58 -4.45,3.25 -5.15,3.5 -4.08,1.46 -6.25,0.88 -8.3,0.62 -2.36,-0.3 -0.17,3.39 -6.91,2.66 -2.27,-0.24 -4.58,1.8 -4.64,3.7 -0.07,2.02 0.14,9.67 0.37,10.18 l 3.31,2.9 c 0,0 -0.75,-3.76 1.74,-2.68 3.48,1.51 9.47,0.06 10.04,-0.38 -1.26,1.17 -1.44,2.48 -2.4,3.71 -2.15,2.62 -6.54,4.1 -5.48,8.84 2.21,9.88 -2.39,9.38 -2.39,9.38 -2.88,0.1 -5.01,-3.99 -5.01,-3.99 l 0.21,4.37 c -0.04,2.26 4.28,7.33 7.27,6.09 l 1.96,3.83 c 7.07,1.16 0.05,6.52 0.12,8.5 l 2.94,6.16 c 0.15,-0.5 0.45,-6.51 3.35,-6.25 2.73,0.24 2.98,2.71 2.98,2.71 -5,3.76 1.04,9.95 4.6,11.84 0,0 0.45,-0.81 1.25,-0.97 -1.76,-0.65 -2.87,-1.96 -2.53,-3.18 0.35,-1.26 0.62,-1.05 1.65,-1.37 1.31,-0.42 1.66,-0.06 2.87,-0.67 1.29,-0.64 1.75,1.17 2.92,0.82 0.87,-0.26 2.21,-1.38 3.45,-2.21 -2.19,2.83 -4.1,6.87 -8.24,12.39 -0.8,1.07 -0.88,9.66 -0.46,17.93 l 0.07,1.35 c 0.38,6.63 1.06,12.77 1.93,14.33 0.11,0.19 -0.56,0.28 3.73,-6.17 l 1.05,-1.61 c 4.62,-7.31 11.11,-16.15 17.31,-21.87 l 1.39,-8.69 c 0.35,0.07 0.72,0.11 1.1,0.1 l -0.96,8.58 c 1.84,0.51 5.17,4.94 13.88,15.57 l 1.53,1.86 c 4.96,6.04 10.97,12.58 11.25,12.13 1.67,-2.57 20.85,-34.44 20.85,-34.44 0,0 -5.63,-7.96 -7.3,-13.22 2.05,-2.02 1.91,-0.06 7.26,3.42 4.14,2.69 5.79,0.22 5.79,0.22 0,0 -3.85,-2.28 -3.86,-4.57 -0.03,-5.07 2.06,-4.9 3.14,-4.76 2.56,0.33 1.37,2.63 1.37,2.63 l 2.7,-0.02 c 0,0 0.88,-0.52 1.16,-1.1 1.96,-4.01 -6.85,-6.2 -8.29,-7.46 -1.46,-1.28 -0.58,-3.79 -0.58,-3.79 4.55,5.62 7.43,4.25 12.12,2.96 l 4.79,-4.82 c -5.09,0.6 -10.57,5.15 -14.49,-6.54 l 0.97,-0.87 c 2.32,4.16 4.83,5.76 7.87,5.94 l 7.15,-7.45 c -8.33,5.8 -7.73,-4.95 -7.73,-4.95 8.51,-0.44 10.27,-3.84 10.29,-5.51 v 0 z"
         id="path3" />
    </g>
  </g>
</svg>
